<svg xmlns="http://www.w3.org/2000/svg" viewBox="0 0 980 620" role="img" aria-label="Toy simplicial complex with gauge transport and observable projection">
  <rect width="980" height="620" fill="#fbfaf6"/>
  <g transform="translate(90 80)">
    <path d="M120 70 320 130 220 300Z" fill="#eef3ef" stroke="#2f6557" stroke-width="3"/>
    <path d="M320 130 520 70 470 300 220 300Z" fill="#f7f1e8" stroke="#6f4c2f" stroke-width="3"/>
    <path d="M520 70 700 190 470 300Z" fill="#eef3ef" stroke="#2f6557" stroke-width="3"/>
    <g stroke="#1f2623" stroke-width="3">
      <path d="M120 70 320 130"/>
      <path d="M320 130 520 70"/>
      <path d="M520 70 700 190"/>
      <path d="M700 190 470 300"/>
      <path d="M470 300 220 300"/>
      <path d="M220 300 120 70"/>
      <path d="M320 130 220 300"/>
      <path d="M320 130 470 300"/>
      <path d="M520 70 470 300"/>
    </g>
    <g fill="#fff" stroke="#1f2623" stroke-width="3">
      <circle cx="120" cy="70" r="17"/>
      <circle cx="320" cy="130" r="17"/>
      <circle cx="520" cy="70" r="17"/>
      <circle cx="700" cy="190" r="17"/>
      <circle cx="470" cy="300" r="17"/>
      <circle cx="220" cy="300" r="17"/>
    </g>
    <g font-family="Inter, Arial, sans-serif" fill="#1f2623">
      <text x="92" y="34" font-size="18">random cells</text>
      <text x="525" y="44" font-size="18">gauge transport</text>
      <path d="M575 54c50 5 82 28 100 75" fill="none" stroke="#6f4c2f" stroke-width="2"/>
      <text x="250" y="390" font-size="20">observable</text>
      <path d="M360 384h150" stroke="#2f6557" stroke-width="3" marker-end="url(#arrow)"/>
      <text x="540" y="390" font-size="20">harmonic sector</text>
    </g>
  </g>
  <defs>
    <marker id="arrow" viewBox="0 0 10 10" refX="9" refY="5" markerWidth="7" markerHeight="7" orient="auto-start-reverse">
      <path d="M0 0 10 5 0 10z" fill="#2f6557"/>
    </marker>
  </defs>
</svg>
